<svg width="593" height="593" viewBox="0 0 593 593" fill="none" xmlns="http://www.w3.org/2000/svg">
<circle opacity="0.6" cx="296.64" cy="296.64" r="151.779" fill="url(#paint0_radial_38_49)"/>
<circle opacity="0.6" cx="296.941" cy="296.941" r="128.636" fill="url(#paint1_radial_38_49)"/>
<g opacity="0.5" filter="url(#filter0_d_38_49)">
<circle cx="297.353" cy="297.353" r="99.5708" fill="url(#paint2_radial_38_49)"/>
</g>
<path d="M321.837 289.828V296.941C321.837 303.544 319.214 309.876 314.545 314.545C309.876 319.214 303.544 321.837 296.941 321.837M296.941 321.837C290.338 321.837 284.006 319.214 279.337 314.545C274.668 309.876 272.045 303.544 272.045 296.941V289.828M296.941 321.837V336.063M282.715 336.063H311.167M296.941 257.819C294.111 257.819 291.397 258.943 289.396 260.944C287.395 262.945 286.271 265.659 286.271 268.489V296.941C286.271 299.771 287.395 302.484 289.396 304.485C291.397 306.486 294.111 307.61 296.941 307.61C299.771 307.61 302.484 306.486 304.485 304.485C306.486 302.484 307.61 299.771 307.61 296.941V268.489C307.61 265.659 306.486 262.945 304.485 260.944C302.484 258.943 299.771 257.819 296.941 257.819Z" stroke="#E9F2F5" stroke-width="4.76911" stroke-linecap="round" stroke-linejoin="round"/>
<defs>
<filter id="filter0_d_38_49" x="183.941" y="183.94" width="226.824" height="226.824" filterUnits="userSpaceOnUse" color-interpolation-filters="sRGB">
<feFlood flood-opacity="0" result="BackgroundImageFix"/>
<feColorMatrix in="SourceAlpha" type="matrix" values="0 0 0 0 0 0 0 0 0 0 0 0 0 0 0 0 0 0 127 0" result="hardAlpha"/>
<feMorphology radius="6.9207" operator="dilate" in="SourceAlpha" result="effect1_dropShadow_38_49"/>
<feOffset/>
<feGaussianBlur stdDeviation="3.46035"/>
<feComposite in2="hardAlpha" operator="out"/>
<feColorMatrix type="matrix" values="0 0 0 0 0 0 0 0 0 0 0 0 0 0 0 0 0 0 0.12 0"/>
<feBlend mode="normal" in2="BackgroundImageFix" result="effect1_dropShadow_38_49"/>
<feBlend mode="normal" in="SourceGraphic" in2="effect1_dropShadow_38_49" result="shape"/>
</filter>
<radialGradient id="paint0_radial_38_49" cx="0" cy="0" r="1" gradientUnits="userSpaceOnUse" gradientTransform="translate(296.64 296.64) rotate(90) scale(151.779 226.761)">
<stop stop-color="#216A82"/>
<stop offset="1" stop-color="#27809D"/>
</radialGradient>
<radialGradient id="paint1_radial_38_49" cx="0" cy="0" r="1" gradientUnits="userSpaceOnUse" gradientTransform="translate(296.941 296.941) rotate(90) scale(128.636 192.185)">
<stop stop-color="#216A82"/>
<stop offset="1" stop-color="#27809D"/>
</radialGradient>
<radialGradient id="paint2_radial_38_49" cx="0" cy="0" r="1" gradientUnits="userSpaceOnUse" gradientTransform="translate(297.353 297.353) rotate(90) scale(99.5708)">
<stop stop-color="#27809D"/>
<stop offset="1" stop-color="#216A82"/>
</radialGradient>
</defs>
</svg>
